<svg viewBox="0 -.5 25 25" xmlns="http://www.w3.org/2000/svg"><path fill="#CBB26A" d="M20.51 11.5c.53-.49.88-1.15.95-1.87 .07-.72-.12-1.44-.54-2.03 -.43-.59-1.05-1-1.76-1.16 -.71-.16-1.45-.05-2.08.31V4.89c-.01-.6-.19-1.18-.52-1.67 -.34-.49-.82-.87-1.38-1.08 -.56-.21-1.17-.25-1.74-.11 -.58.14-1.1.45-1.49.9 -.49-.54-1.15-.89-1.87-.96 -.72-.08-1.44.11-2.03.53 -.59.42-1 1.04-1.16 1.75 -.16.7-.05 1.44.31 2.07H5.34c-.6 0-1.18.18-1.67.51s-.87.81-1.08 1.37c-.21.55-.25 1.16-.11 1.73 .14.57.45 1.09.9 1.48 -.54.48-.89 1.14-.96 1.86 -.08.71.11 1.43.53 2.026 .42.58 1.04.99 1.75 1.15 .7.15 1.44.04 2.07-.32v1.85c0 .59.18 1.17.51 1.66 .33.48.81.86 1.37 1.07 .55.2 1.16.24 1.73.1 .57-.15 1.09-.46 1.48-.91 .48.53 1.14.88 1.86.95 .71.07 1.43-.12 2.026-.54 .58-.43.99-1.05 1.15-1.76 .15-.71.04-1.45-.32-2.08h1.85c.59-.01 1.17-.19 1.66-.52 .48-.34.86-.82 1.07-1.38 .2-.56.24-1.17.1-1.74 -.15-.58-.46-1.1-.91-1.49ZM6.88 13.69c0 .28-.09.57-.25.81 -.17.24-.39.42-.66.53 -.27.11-.57.13-.85.08 -.29-.06-.55-.2-.75-.41 -.21-.21-.35-.47-.41-.75 -.06-.29-.03-.58.08-.85s.29-.5.53-.66c.24-.17.52-.25.81-.25h1.46v1.46Zm4.38 4.38c0 .38-.16.75-.43 1.03 -.28.27-.65.42-1.04.42s-.76-.16-1.04-.43c-.28-.28-.43-.65-.43-1.04v-4.39c0-.39.15-.76.42-1.04s.64-.43 1.03-.43h1.46v5.84Zm0-7.32H5.41c-.39 0-.76-.16-1.04-.43 -.28-.28-.43-.65-.43-1.04s.15-.76.42-1.04 .64-.43 1.03-.43h4.38c.38 0 .75.15 1.03.42 .27.27.42.64.42 1.03v1.46Zm0-4.39H9.79c-.29 0-.58-.09-.82-.25 -.25-.17-.43-.39-.54-.66 -.12-.27-.14-.57-.09-.85 .05-.29.19-.55.4-.75 .2-.21.46-.35.74-.41 .28-.06.57-.03.84.08 .26.11.49.29.65.53 .16.24.24.52.24.81v1.46Zm1.46-1.47c0-.39.15-.76.42-1.04s.64-.43 1.03-.43c.38 0 .75.15 1.03.42 .27.27.42.64.42 1.03v4.38c0 .38-.16.75-.43 1.03 -.28.27-.65.42-1.04.42h-1.47V4.85Zm1.46 14.62c-.39 0-.76-.16-1.04-.43 -.28-.28-.43-.65-.43-1.04v-1.47h1.46c.38 0 .75.15 1.03.42 .27.27.42.64.42 1.03 0 .38-.16.75-.43 1.03 -.28.27-.65.42-1.04.42Zm4.38-4.39h-4.39c-.39 0-.76-.16-1.04-.43 -.28-.28-.43-.65-.43-1.04v-1.47h5.84c.38 0 .75.15 1.03.42 .27.27.42.64.42 1.03 0 .38-.16.75-.43 1.03 -.28.27-.65.42-1.04.42Zm0-4.39h-1.47V9.26c0-.29.08-.58.24-.82 .16-.25.38-.43.65-.54 .26-.12.56-.14.84-.09 .28.05.54.19.74.4 .2.2.34.46.4.74 .05.28.02.57-.09.84 -.12.26-.3.49-.54.65 -.25.16-.53.24-.82.24Z"/></svg>